<!--?xml version="1.0" encoding="utf-8"?-->
<!-- Generator: Adobe Illustrator 18.1.1, SVG Export Plug-In . SVG Version: 6.00 Build 0)  -->

<svg version="1.1" id="_x32_" xmlns="http://www.w3.org/2000/svg" xmlns:xlink="http://www.w3.org/1999/xlink" x="0px" y="0px" viewBox="0 0 512 512" style="width: 512px; height: 512px; opacity: 1;" xml:space="preserve">
<style type="text/css">
	.st0{fill:#4B4B4B;}
</style>
<g>
	<rect x="170.686" y="458.682" class="st0" width="24.378" height="53.318" style="fill: rgb(223, 86, 86);"></rect>
	<rect x="219.442" y="458.682" class="st0" width="24.371" height="53.318" style="fill: rgb(223, 86, 86);"></rect>
	<rect x="268.19" y="458.682" class="st0" width="24.371" height="53.318" style="fill: rgb(223, 86, 86);"></rect>
	<rect x="316.94" y="458.682" class="st0" width="24.378" height="53.318" style="fill: rgb(223, 86, 86);"></rect>
	<rect x="393.114" y="236.243" class="st0" width="53.318" height="24.378" style="fill: rgb(223, 86, 86);"></rect>
	<rect x="393.114" y="285" class="st0" width="53.318" height="24.378" style="fill: rgb(223, 86, 86);"></rect>
	<rect x="393.114" y="333.755" class="st0" width="53.318" height="24.371" style="fill: rgb(223, 86, 86);"></rect>
	<rect x="393.114" y="382.504" class="st0" width="53.318" height="24.378" style="fill: rgb(223, 86, 86);"></rect>
	<rect x="65.568" y="236.243" class="st0" width="53.318" height="24.378" style="fill: rgb(223, 86, 86);"></rect>
	<rect x="65.568" y="285" class="st0" width="53.318" height="24.378" style="fill: rgb(223, 86, 86);"></rect>
	<rect x="65.568" y="333.755" class="st0" width="53.318" height="24.371" style="fill: rgb(223, 86, 86);"></rect>
	<rect x="65.568" y="382.504" class="st0" width="53.318" height="24.378" style="fill: rgb(223, 86, 86);"></rect>
	<path class="st0" d="M134.126,443.442h243.748V199.691H134.126V443.442z M338.841,228.254c6.308,0,11.423,5.108,11.423,11.423
		c0,6.314-5.115,11.422-11.423,11.422c-6.307,0-11.422-5.108-11.422-11.422C327.419,233.362,332.534,228.254,338.841,228.254z
		 M338.841,393.934c6.308,0,11.423,5.108,11.423,11.423c0,6.314-5.115,11.422-11.423,11.422c-6.307,0-11.422-5.108-11.422-11.422
		C327.419,399.042,332.534,393.934,338.841,393.934z M281.905,296.507c0-0.44,0.298-0.737,0.746-0.737h9.408
		c0.447,0,0.744,0.298,0.744,0.737v31.423c0,6.003,3.335,9.408,8.443,9.408c5.038,0,8.38-3.406,8.38-9.408v-31.423
		c0-0.44,0.298-0.737,0.737-0.737h9.408c0.448,0,0.738,0.298,0.738,0.737v31.133c0,12.516-7.996,19.333-19.263,19.333
		c-11.33,0-19.34-6.818-19.34-19.333V296.507z M235.802,296.507c0-0.44,0.298-0.737,0.745-0.737h19.56
		c10.969,0,17.56,6.598,17.56,16.233c0,9.478-6.669,16.148-17.56,16.148h-8.967c-0.298,0-0.448,0.149-0.448,0.447v16.822
		c0,0.44-0.291,0.737-0.738,0.737h-9.408c-0.447,0-0.745-0.298-0.745-0.737V296.507z M190.296,307.334
		c2.667-8.23,9.116-12.373,17.936-12.373c8.521,0,14.743,4.143,17.56,11.181c0.22,0.369,0.071,0.738-0.369,0.894l-8.081,3.625
		c-0.44,0.22-0.816,0.078-1.036-0.362c-1.404-3.263-3.782-5.712-8.002-5.712c-3.924,0-6.443,2.079-7.557,5.556
		c-0.596,1.859-0.816,3.632-0.816,10.826c0,7.18,0.22,8.961,0.816,10.813c1.114,3.476,3.633,5.556,7.557,5.556
		c4.221,0,6.598-2.448,8.002-5.704c0.22-0.447,0.596-0.588,1.036-0.369l8.081,3.625c0.44,0.156,0.589,0.526,0.369,0.894
		c-2.817,7.038-9.038,11.188-17.56,11.188c-8.819,0-15.269-4.15-17.936-12.38c-1.107-3.249-1.405-5.846-1.405-13.622
		C188.891,313.18,189.189,310.598,190.296,307.334z M173.162,228.254c6.314,0,11.429,5.116,11.429,11.423
		c0,6.307-5.115,11.422-11.429,11.422c-6.315,0-11.423-5.115-11.423-11.422C161.739,233.37,166.847,228.254,173.162,228.254z
		 M173.162,393.934c6.314,0,11.429,5.116,11.429,11.423c0,6.307-5.115,11.422-11.429,11.422c-6.315,0-11.423-5.115-11.423-11.422
		C161.739,399.05,166.847,393.934,173.162,393.934z" style="fill: rgb(223, 86, 86);"></path>
	<path class="st0" d="M246.941,318.544c0.075,0.057,0.068,0.199,0.199,0.199h8.3c2.413,0,4.271-0.767,5.534-2.058
		c1.451-1.263,2.277-3.094,2.277-5.364c0-4.363-2.938-7.308-7.854-7.308h-8.883c-0.319,0-0.482,0.171-0.482,0.49v13.558
		c0,0.327,0.163,0.482,0.482,0.482H246.941z" style="fill: rgb(223, 86, 86);"></path>
	<path class="st0" d="M393.114,183.791v19.028c23.86-7.953,39.227-42.058,30.132-71.949c-19.071,23.832-33.892,22.242-41.306,12.707
		c-9.933-12.756,6.357-24.789,39.717-47.656c37.07-25.422,18.007-83.67-11.65-79.434c6.357,13.771,6.357,41.306-19.064,41.306
		c-25.421,0-29.656-36.013-15.885-57.191c-28.596-5.293-76.216,24.775-49.774,73.076c12.175,22.243,10.586,31.772,4.233,39.717
		c-14.318,17.894-41.307,4.768-31.775-28.592c6.442-22.554-17.475-33.36-17.475-33.36s1.59,25.414-52.427,44.478
		c-54.198,19.135-54.343,63.62-41.253,87.87H393.114z" style="fill: rgb(223, 86, 86);"></path>
</g>
</svg>
